<?xml version="1.0" encoding="iso-8859-1"?>
<!-- Uploaded to: SVG Repo, www.svgrepo.com, Generator: SVG Repo Mixer Tools -->
<svg fill="#000000" height="800px" width="800px" version="1.1" id="Layer_1" xmlns="http://www.w3.org/2000/svg" xmlns:xlink="http://www.w3.org/1999/xlink" 
	 viewBox="0 0 511.999 511.999" xml:space="preserve">
<g>
	<g>
		<g>
			<path d="M80.953,384.187h56.682c10.624,0,19.267-8.643,19.267-19.267v-8.891c0-10.624-8.643-19.268-19.267-19.268H80.953
				c-10.624,0-19.267,8.643-19.267,19.268v8.891C61.687,375.544,70.33,384.187,80.953,384.187z M77.992,356.03
				c0-1.606,1.357-2.962,2.961-2.962h56.682c1.606,0,2.961,1.356,2.961,2.962v8.891c0,1.606-1.356,2.961-2.961,2.961H80.953
				c-1.606,0-2.961-1.357-2.961-2.961V356.03z"/>
			<path d="M178.757,384.187h56.681c10.624,0,19.268-8.643,19.268-19.267v-8.891c0-10.624-8.643-19.268-19.268-19.268h-56.681
				c-10.624,0-19.268,8.643-19.268,19.268v8.891C159.491,375.544,168.134,384.187,178.757,384.187z M175.796,356.03
				c0-1.606,1.356-2.962,2.962-2.962h56.681c1.606,0,2.962,1.356,2.962,2.962v8.891c0,1.606-1.357,2.961-2.962,2.961h-56.681
				c-1.606,0-2.962-1.357-2.962-2.961V356.03z"/>
			<path d="M476.062,85.57H35.937C16.122,85.57,0,101.691,0,121.508v268.983c0,19.816,16.122,35.938,35.937,35.938h440.124
				c19.816,0,35.937-16.122,35.937-35.938V121.508C512,101.691,495.878,85.57,476.062,85.57z M16.305,121.508
				c0-10.825,8.807-19.633,19.632-19.633h440.124c10.825,0,19.632,8.807,19.632,19.633v107.49h-31.899
				c-0.75-13.018-11.575-23.381-24.779-23.381h-62.98c-13.203,0-24.028,10.363-24.778,23.381H16.305V121.508z M447.532,230.441
				v30.09c0,3.098-1.667,5.806-4.145,7.297c-7.654-4.757-12.461-13.209-12.461-22.343c0-9.132,4.807-17.584,12.46-22.342
				C445.866,224.635,447.532,227.344,447.532,230.441z M421.789,269.051h-28.528c4.567-6.867,7.168-15.029,7.168-23.565
				c0-8.534-2.601-16.697-7.168-23.564h28.528c-4.567,6.867-7.168,15.029-7.168,23.564
				C414.621,254.022,417.223,262.183,421.789,269.051z M384.123,245.485c0,9.133-4.807,17.586-12.461,22.343
				c-2.478-1.491-4.145-4.199-4.145-7.297v-30.09c0-3.098,1.667-5.806,4.145-7.297C379.316,227.9,384.123,236.352,384.123,245.485z
				 M495.695,390.491c0,10.825-8.807,19.633-19.632,19.633H35.937c-10.825,0-19.632-8.807-19.632-19.633v-81.576h479.389V390.491z
				 M495.695,292.609H16.305v-47.305h334.906v15.227c0,13.688,11.136,24.825,24.823,24.825h62.981
				c13.688,0,24.823-11.137,24.823-24.825v-15.227h31.856V292.609z"/>
			<path d="M248.779,135.891H86.51c-13.688,0-24.823,11.136-24.823,24.823v16.672c0,13.688,11.136,24.823,24.823,24.823h162.269
				c13.688,0,24.823-11.137,24.823-24.823v-16.672C273.603,147.026,262.467,135.891,248.779,135.891z M257.297,177.386
				c0,4.697-3.821,8.518-8.518,8.518H86.51c-4.697,0-8.518-3.822-8.518-8.518v-16.672c0-4.697,3.821-8.518,8.518-8.518h162.269
				c4.697,0,8.518,3.822,8.518,8.518V177.386z"/>
			<path d="M374.364,384.187h56.682c10.624,0,19.267-8.643,19.267-19.267v-8.891c0-10.624-8.643-19.268-19.267-19.268h-56.682
				c-10.624,0-19.267,8.643-19.267,19.268v8.891C355.098,375.544,363.741,384.187,374.364,384.187z M371.403,356.03
				c0-1.606,1.356-2.962,2.961-2.962h56.682c1.606,0,2.961,1.356,2.961,2.962v8.891c0,1.606-1.357,2.961-2.961,2.961h-56.682
				c-1.606,0-2.961-1.357-2.961-2.961V356.03z"/>
			<path d="M276.561,384.187h56.681c10.624,0,19.267-8.643,19.267-19.267v-8.891c0-10.624-8.643-19.268-19.267-19.268h-56.681
				c-10.624,0-19.267,8.643-19.267,19.268v8.891C257.294,375.544,265.937,384.187,276.561,384.187z M273.6,356.03
				c0-1.606,1.357-2.962,2.961-2.962h56.681c1.606,0,2.961,1.356,2.961,2.962v8.891c0,1.606-1.356,2.961-2.961,2.961h-56.681
				c-1.606,0-2.961-1.357-2.961-2.961V356.03z"/>
		</g>
	</g>
</g>
</svg>