<svg xmlns="http://www.w3.org/2000/svg" viewBox="0 0 512 512" id="food">
  <path d="M155.92 150.43a7.92 7.92 0 01-7.92-7.92V78.06a7.92 7.92 0 0115.84 0v64.45A7.91 7.91 0 01155.92 150.43zM172 279.76a7.92 7.92 0 01-7.92-7.92V215a40.33 40.33 0 0116-32.11l9.67-7.25a16.36 16.36 0 006.5-12.66l-8.26-84.17a7.92 7.92 0 0115.77-1.55l8.3 84.6c0 .26 0 .52 0 .77a32.27 32.27 0 01-12.83 25.68l-9.67 7.25A24.4 24.4 0 00180 215v56.82A7.93 7.93 0 01172 279.76zM139.81 279.76a7.92 7.92 0 01-7.92-7.92V215a24.42 24.42 0 00-9.72-19.44l-9.67-7.25a32.25 32.25 0 01-12.84-25.68 6.74 6.74 0 010-.77l8.3-84.6a7.92 7.92 0 1115.76 1.55L115.51 163A16.32 16.32 0 00122 175.66l9.67 7.25A40.31 40.31 0 01147.73 215v56.82A7.93 7.93 0 01139.81 279.76zM277.05 279.76a7.92 7.92 0 01-7.92-7.92V202A7.92 7.92 0 01285 202v69.8A7.93 7.93 0 01277.05 279.76zM309.27 279.76a7.93 7.93 0 01-7.92-7.92V202a7.93 7.93 0 0115.85 0v69.8A7.93 7.93 0 01309.27 279.76z"></path>
  <path d="M293.16,213.56c-31,0-56.26-32.47-56.26-72.38s25.24-72.37,56.26-72.37,56.26,32.47,56.26,72.37S324.18,213.56,293.16,213.56Zm0-128.91c-22.29,0-40.42,25.36-40.42,56.53s18.13,56.54,40.42,56.54,40.42-25.36,40.42-56.54S315.45,84.65,293.16,84.65Z"></path>
  <path d="M418.15,501.53H30.93A7.92,7.92,0,0,1,23,493.61V18.39a7.92,7.92,0,0,1,7.92-7.92H418.15a7.91,7.91,0,0,1,7.92,7.92V493.61A7.91,7.91,0,0,1,418.15,501.53ZM38.85,485.69H410.23V26.31H38.85Z"></path>
  <path d="M89.89 360.81A25.61 25.61 0 11115.5 335.2 25.63 25.63 0 0189.89 360.81zm0-35.37a9.77 9.77 0 109.77 9.76A9.77 9.77 0 0089.89 325.44zM375 343.13H145.34a7.93 7.93 0 010-15.85H375a7.93 7.93 0 010 15.85zM89.89 440a25.61 25.61 0 1125.61-25.61A25.63 25.63 0 0189.89 440zm0-35.38a9.77 9.77 0 109.77 9.77A9.78 9.78 0 0089.89 404.64zM375 422.33H145.34a7.92 7.92 0 010-15.84H375a7.92 7.92 0 110 15.84z"></path>
</svg>
