<svg id="svg" version="1.1" width="304" height="231" viewBox="0 0 304 231" xmlns="http://www.w3.org/2000/svg"><path d="M137.000 26.666 C 121.280 29.139,104.580 35.889,93.000 44.452 C 87.081 48.828,76.027 60.180,71.383 66.648 C 65.294 75.131,58.623 89.754,55.940 100.500 C 52.750 113.281,52.762 132.814,55.969 145.500 C 63.327 174.609,82.690 198.477,109.071 210.957 C 112.607 212.630,116.011 213.999,116.636 213.999 C 119.060 214.001,120.715 187.446,119.108 174.353 C 117.624 162.276,115.975 158.690,108.529 151.348 C 104.398 147.276,102.071 144.107,101.645 141.973 C 100.848 137.991,101.033 87.272,101.881 77.000 C 102.473 69.832,102.611 69.500,105.000 69.500 L 107.500 69.500 108.000 96.000 C 108.275 110.575,108.864 123.063,109.309 123.750 C 109.754 124.438,110.740 125.000,111.500 125.000 C 112.260 125.000,113.246 124.438,113.691 123.750 C 114.136 123.063,114.725 110.575,115.000 96.000 L 115.500 69.500 118.000 69.500 L 120.500 69.500 121.041 96.500 C 121.339 111.350,121.676 123.612,121.791 123.750 C 121.906 123.888,123.125 124.000,124.500 124.000 C 125.875 124.000,127.094 123.888,127.209 123.750 C 127.324 123.612,127.661 111.356,127.959 96.513 C 128.473 70.854,128.595 69.507,130.434 69.154 C 134.593 68.355,135.000 70.936,135.000 98.084 C 135.000 119.216,135.249 123.882,136.403 124.324 C 137.174 124.620,138.521 124.331,139.395 123.681 C 140.766 122.662,141.020 118.856,141.242 96.000 L 141.500 69.500 143.955 69.500 C 145.721 69.500,146.605 70.201,147.105 72.000 C 147.488 73.375,147.845 89.710,147.900 108.300 C 148.013 146.503,148.266 145.080,140.169 151.858 C 133.867 157.135,131.350 162.976,129.919 175.649 C 128.738 186.105,130.273 216.535,132.076 218.431 C 132.563 218.943,139.158 219.547,146.731 219.773 C 158.081 220.112,162.153 219.819,169.906 218.103 C 175.080 216.957,179.509 215.825,179.748 215.586 C 179.987 215.347,180.430 208.906,180.732 201.273 C 181.351 185.636,180.399 181.868,175.067 178.837 C 169.325 175.573,168.571 172.533,168.171 151.055 C 167.586 119.575,170.278 97.248,176.315 83.500 C 181.087 72.633,189.412 61.000,192.417 61.000 C 196.266 61.000,196.347 62.351,195.407 111.291 C 194.370 165.242,194.322 204.791,195.289 207.310 C 197.161 212.190,223.538 189.107,232.319 174.904 C 241.998 159.249,245.937 146.104,246.704 126.910 C 247.526 106.302,243.568 90.285,233.323 72.771 C 226.831 61.674,211.488 46.298,200.243 39.620 C 191.133 34.211,175.968 28.645,166.000 27.053 C 159.805 26.064,142.312 25.830,137.000 26.666 " stroke="none" fill="black" fill-rule="evenodd"/></svg>